<?xml version="1.0" encoding="UTF-8" standalone="no"?>
<!DOCTYPE svg PUBLIC "-//W3C//DTD SVG 1.1//EN"
 "http://www.w3.org/Graphics/SVG/1.1/DTD/svg11.dtd">
<!-- Generated by graphviz version 2.43.0 (0)
 -->
<!-- Pages: 1 -->
<svg width="822pt" height="152pt"
 viewBox="0.00 0.00 822.23 152.00" xmlns="http://www.w3.org/2000/svg" xmlns:xlink="http://www.w3.org/1999/xlink">
<g id="graph0" class="graph" transform="scale(1 1) rotate(0) translate(4 148)">
<polygon fill="white" stroke="transparent" points="-4,4 -4,-148 818.23,-148 818.23,4 -4,4"/>
<!-- root_scene_5a5f7961 -->
<g id="node1" class="node">
<title>root_scene_5a5f7961</title>
<ellipse fill="none" stroke="black" cx="108.54" cy="-72" rx="108.58" ry="18"/>
<text text-anchor="middle" x="108.54" y="-68.3" font-family="Times,serif" font-size="14.00">root_scene_5a5f7961</text>
</g>
<!-- table_with_objects_940e6137 -->
<g id="node2" class="node">
<title>table_with_objects_940e6137</title>
<ellipse fill="none" stroke="black" cx="400.62" cy="-72" rx="147.57" ry="18"/>
<text text-anchor="middle" x="400.62" y="-68.3" font-family="Times,serif" font-size="14.00">table_with_objects_940e6137</text>
</g>
<!-- root_scene_5a5f7961&#45;&gt;table_with_objects_940e6137 -->
<g id="edge1" class="edge">
<title>root_scene_5a5f7961&#45;&gt;table_with_objects_940e6137</title>
<path fill="none" stroke="black" d="M217.14,-72C225.49,-72 234.01,-72 242.59,-72"/>
<polygon fill="black" stroke="black" points="242.67,-75.5 252.67,-72 242.67,-68.5 242.67,-75.5"/>
</g>
<!-- table_60d5f5f6 -->
<g id="node3" class="node">
<title>table_60d5f5f6</title>
<ellipse fill="none" stroke="black" cx="699.19" cy="-126" rx="80.69" ry="18"/>
<text text-anchor="middle" x="699.19" y="-122.3" font-family="Times,serif" font-size="14.00">table_60d5f5f6</text>
</g>
<!-- table_with_objects_940e6137&#45;&gt;table_60d5f5f6 -->
<g id="edge2" class="edge">
<title>table_with_objects_940e6137&#45;&gt;table_60d5f5f6</title>
<path fill="none" stroke="black" d="M483.44,-86.9C528.14,-95.04 583,-105.02 626.08,-112.87"/>
<polygon fill="black" stroke="black" points="625.45,-116.31 635.92,-114.66 626.71,-109.43 625.45,-116.31"/>
</g>
<!-- facecleaner_63d9d772 -->
<g id="node4" class="node">
<title>facecleaner_63d9d772</title>
<ellipse fill="none" stroke="black" cx="699.19" cy="-72" rx="115.08" ry="18"/>
<text text-anchor="middle" x="699.19" y="-68.3" font-family="Times,serif" font-size="14.00">facecleaner_63d9d772</text>
</g>
<!-- table_with_objects_940e6137&#45;&gt;facecleaner_63d9d772 -->
<g id="edge3" class="edge">
<title>table_with_objects_940e6137&#45;&gt;facecleaner_63d9d772</title>
<path fill="none" stroke="black" d="M548.17,-72C556.68,-72 565.19,-72 573.6,-72"/>
<polygon fill="black" stroke="black" points="573.8,-75.5 583.8,-72 573.8,-68.5 573.8,-75.5"/>
</g>
<!-- apple_3a8d843b -->
<g id="node5" class="node">
<title>apple_3a8d843b</title>
<ellipse fill="none" stroke="black" cx="699.19" cy="-18" rx="87.18" ry="18"/>
<text text-anchor="middle" x="699.19" y="-14.3" font-family="Times,serif" font-size="14.00">apple_3a8d843b</text>
</g>
<!-- table_with_objects_940e6137&#45;&gt;apple_3a8d843b -->
<g id="edge4" class="edge">
<title>table_with_objects_940e6137&#45;&gt;apple_3a8d843b</title>
<path fill="none" stroke="black" d="M483.44,-57.1C527.09,-49.15 580.43,-39.44 623.03,-31.69"/>
<polygon fill="black" stroke="black" points="623.85,-35.09 633.06,-29.86 622.59,-28.21 623.85,-35.09"/>
</g>
</g>
</svg>
