<?xml version="1.0" encoding="UTF-8" standalone="no"?>
<!DOCTYPE svg PUBLIC "-//W3C//DTD SVG 1.1//EN"
 "http://www.w3.org/Graphics/SVG/1.1/DTD/svg11.dtd">
<!-- Generated by graphviz version 2.43.0 (0)
 -->
<!-- Pages: 1 -->
<svg width="818pt" height="152pt"
 viewBox="0.00 0.00 818.33 152.00" xmlns="http://www.w3.org/2000/svg" xmlns:xlink="http://www.w3.org/1999/xlink">
<g id="graph0" class="graph" transform="scale(1 1) rotate(0) translate(4 148)">
<polygon fill="white" stroke="transparent" points="-4,4 -4,-148 814.33,-148 814.33,4 -4,4"/>
<!-- root_scene_634aa72e -->
<g id="node1" class="node">
<title>root_scene_634aa72e</title>
<ellipse fill="none" stroke="black" cx="110.49" cy="-72" rx="110.48" ry="18"/>
<text text-anchor="middle" x="110.49" y="-68.3" font-family="Times,serif" font-size="14.00">root_scene_634aa72e</text>
</g>
<!-- table_with_objects_dea95bc1 -->
<g id="node2" class="node">
<title>table_with_objects_dea95bc1</title>
<ellipse fill="none" stroke="black" cx="402.57" cy="-72" rx="145.67" ry="18"/>
<text text-anchor="middle" x="402.57" y="-68.3" font-family="Times,serif" font-size="14.00">table_with_objects_dea95bc1</text>
</g>
<!-- root_scene_634aa72e&#45;&gt;table_with_objects_dea95bc1 -->
<g id="edge1" class="edge">
<title>root_scene_634aa72e&#45;&gt;table_with_objects_dea95bc1</title>
<path fill="none" stroke="black" d="M221.16,-72C229.57,-72 238.16,-72 246.79,-72"/>
<polygon fill="black" stroke="black" points="246.94,-75.5 256.94,-72 246.94,-68.5 246.94,-75.5"/>
</g>
<!-- table_f36a2ec1 -->
<g id="node3" class="node">
<title>table_f36a2ec1</title>
<ellipse fill="none" stroke="black" cx="697.24" cy="-126" rx="81.49" ry="18"/>
<text text-anchor="middle" x="697.24" y="-122.3" font-family="Times,serif" font-size="14.00">table_f36a2ec1</text>
</g>
<!-- table_with_objects_dea95bc1&#45;&gt;table_f36a2ec1 -->
<g id="edge2" class="edge">
<title>table_with_objects_dea95bc1&#45;&gt;table_f36a2ec1</title>
<path fill="none" stroke="black" d="M484.32,-86.9C528.18,-94.99 581.95,-104.91 624.35,-112.74"/>
<polygon fill="black" stroke="black" points="623.85,-116.2 634.32,-114.57 625.12,-109.32 623.85,-116.2"/>
</g>
<!-- facecleaner_206c7ea1 -->
<g id="node4" class="node">
<title>facecleaner_206c7ea1</title>
<ellipse fill="none" stroke="black" cx="697.24" cy="-72" rx="113.18" ry="18"/>
<text text-anchor="middle" x="697.24" y="-68.3" font-family="Times,serif" font-size="14.00">facecleaner_206c7ea1</text>
</g>
<!-- table_with_objects_dea95bc1&#45;&gt;facecleaner_206c7ea1 -->
<g id="edge3" class="edge">
<title>table_with_objects_dea95bc1&#45;&gt;facecleaner_206c7ea1</title>
<path fill="none" stroke="black" d="M548.19,-72C556.69,-72 565.2,-72 573.59,-72"/>
<polygon fill="black" stroke="black" points="573.78,-75.5 583.78,-72 573.78,-68.5 573.78,-75.5"/>
</g>
<!-- cola_cd9c8c62 -->
<g id="node5" class="node">
<title>cola_cd9c8c62</title>
<ellipse fill="none" stroke="black" cx="697.24" cy="-18" rx="77.19" ry="18"/>
<text text-anchor="middle" x="697.24" y="-14.3" font-family="Times,serif" font-size="14.00">cola_cd9c8c62</text>
</g>
<!-- table_with_objects_dea95bc1&#45;&gt;cola_cd9c8c62 -->
<g id="edge4" class="edge">
<title>table_with_objects_dea95bc1&#45;&gt;cola_cd9c8c62</title>
<path fill="none" stroke="black" d="M484.32,-57.1C528.8,-48.89 583.49,-38.8 626.16,-30.93"/>
<polygon fill="black" stroke="black" points="626.98,-34.34 636.18,-29.08 625.71,-27.45 626.98,-34.34"/>
</g>
</g>
</svg>
