<?xml version="1.0" encoding="UTF-8" standalone="no"?>
<!DOCTYPE svg PUBLIC "-//W3C//DTD SVG 1.1//EN"
 "http://www.w3.org/Graphics/SVG/1.1/DTD/svg11.dtd">
<!-- Generated by graphviz version 2.43.0 (0)
 -->
<!-- Pages: 1 -->
<svg width="768pt" height="152pt"
 viewBox="0.00 0.00 767.64 152.00" xmlns="http://www.w3.org/2000/svg" xmlns:xlink="http://www.w3.org/1999/xlink">
<g id="graph0" class="graph" transform="scale(1 1) rotate(0) translate(4 148)">
<polygon fill="white" stroke="transparent" points="-4,4 -4,-148 763.64,-148 763.64,4 -4,4"/>
<!-- root_scene_11d80946 -->
<g id="node1" class="node">
<title>root_scene_11d80946</title>
<ellipse fill="none" stroke="black" cx="111.79" cy="-72" rx="111.58" ry="18"/>
<text text-anchor="middle" x="111.79" y="-68.3" font-family="Times,serif" font-size="14.00">root_scene_11d80946</text>
</g>
<!-- table_with_objects_678b9fa0 -->
<g id="node2" class="node">
<title>table_with_objects_678b9fa0</title>
<ellipse fill="none" stroke="black" cx="404.52" cy="-72" rx="144.87" ry="18"/>
<text text-anchor="middle" x="404.52" y="-68.3" font-family="Times,serif" font-size="14.00">table_with_objects_678b9fa0</text>
</g>
<!-- root_scene_11d80946&#45;&gt;table_with_objects_678b9fa0 -->
<g id="edge1" class="edge">
<title>root_scene_11d80946&#45;&gt;table_with_objects_678b9fa0</title>
<path fill="none" stroke="black" d="M223.95,-72C232.15,-72 240.51,-72 248.91,-72"/>
<polygon fill="black" stroke="black" points="249.17,-75.5 259.17,-72 249.17,-68.5 249.17,-75.5"/>
</g>
<!-- table_c392dc68 -->
<g id="node3" class="node">
<title>table_c392dc68</title>
<ellipse fill="none" stroke="black" cx="672.55" cy="-126" rx="83.39" ry="18"/>
<text text-anchor="middle" x="672.55" y="-122.3" font-family="Times,serif" font-size="14.00">table_c392dc68</text>
</g>
<!-- table_with_objects_678b9fa0&#45;&gt;table_c392dc68 -->
<g id="edge2" class="edge">
<title>table_with_objects_678b9fa0&#45;&gt;table_c392dc68</title>
<path fill="none" stroke="black" d="M481.04,-87.33C518.67,-94.97 563.9,-104.15 600.85,-111.65"/>
<polygon fill="black" stroke="black" points="600.54,-115.16 611.03,-113.72 601.93,-108.3 600.54,-115.16"/>
</g>
<!-- sprite_09ce9ebe -->
<g id="node4" class="node">
<title>sprite_09ce9ebe</title>
<ellipse fill="none" stroke="black" cx="672.55" cy="-72" rx="87.18" ry="18"/>
<text text-anchor="middle" x="672.55" y="-68.3" font-family="Times,serif" font-size="14.00">sprite_09ce9ebe</text>
</g>
<!-- table_with_objects_678b9fa0&#45;&gt;sprite_09ce9ebe -->
<g id="edge3" class="edge">
<title>table_with_objects_678b9fa0&#45;&gt;sprite_09ce9ebe</title>
<path fill="none" stroke="black" d="M549.82,-72C558.42,-72 566.95,-72 575.28,-72"/>
<polygon fill="black" stroke="black" points="575.32,-75.5 585.32,-72 575.32,-68.5 575.32,-75.5"/>
</g>
<!-- cola_c109e791 -->
<g id="node5" class="node">
<title>cola_c109e791</title>
<ellipse fill="none" stroke="black" cx="672.55" cy="-18" rx="79.09" ry="18"/>
<text text-anchor="middle" x="672.55" y="-14.3" font-family="Times,serif" font-size="14.00">cola_c109e791</text>
</g>
<!-- table_with_objects_678b9fa0&#45;&gt;cola_c109e791 -->
<g id="edge4" class="edge">
<title>table_with_objects_678b9fa0&#45;&gt;cola_c109e791</title>
<path fill="none" stroke="black" d="M481.04,-56.67C519.23,-48.92 565.25,-39.58 602.5,-32.02"/>
<polygon fill="black" stroke="black" points="603.65,-35.35 612.75,-29.93 602.26,-28.49 603.65,-35.35"/>
</g>
</g>
</svg>
