<?xml version="1.0" encoding="UTF-8" standalone="no"?>
<!DOCTYPE svg PUBLIC "-//W3C//DTD SVG 1.1//EN"
 "http://www.w3.org/Graphics/SVG/1.1/DTD/svg11.dtd">
<!-- Generated by graphviz version 2.43.0 (0)
 -->
<!-- Pages: 1 -->
<svg width="768pt" height="152pt"
 viewBox="0.00 0.00 767.64 152.00" xmlns="http://www.w3.org/2000/svg" xmlns:xlink="http://www.w3.org/1999/xlink">
<g id="graph0" class="graph" transform="scale(1 1) rotate(0) translate(4 148)">
<polygon fill="white" stroke="transparent" points="-4,4 -4,-148 763.64,-148 763.64,4 -4,4"/>
<!-- root_scene_725dc62b -->
<g id="node1" class="node">
<title>root_scene_725dc62b</title>
<ellipse fill="none" stroke="black" cx="110.49" cy="-72" rx="110.48" ry="18"/>
<text text-anchor="middle" x="110.49" y="-68.3" font-family="Times,serif" font-size="14.00">root_scene_725dc62b</text>
</g>
<!-- table_with_objects_c3d8460f -->
<g id="node2" class="node">
<title>table_with_objects_c3d8460f</title>
<ellipse fill="none" stroke="black" cx="401.27" cy="-72" rx="144.07" ry="18"/>
<text text-anchor="middle" x="401.27" y="-68.3" font-family="Times,serif" font-size="14.00">table_with_objects_c3d8460f</text>
</g>
<!-- root_scene_725dc62b&#45;&gt;table_with_objects_c3d8460f -->
<g id="edge1" class="edge">
<title>root_scene_725dc62b&#45;&gt;table_with_objects_c3d8460f</title>
<path fill="none" stroke="black" d="M221.08,-72C229.45,-72 237.99,-72 246.57,-72"/>
<polygon fill="black" stroke="black" points="246.65,-75.5 256.65,-72 246.65,-68.5 246.65,-75.5"/>
</g>
<!-- table_eacb7cb5 -->
<g id="node3" class="node">
<title>table_eacb7cb5</title>
<ellipse fill="none" stroke="black" cx="670.6" cy="-126" rx="82.59" ry="18"/>
<text text-anchor="middle" x="670.6" y="-122.3" font-family="Times,serif" font-size="14.00">table_eacb7cb5</text>
</g>
<!-- table_with_objects_c3d8460f&#45;&gt;table_eacb7cb5 -->
<g id="edge2" class="edge">
<title>table_with_objects_c3d8460f&#45;&gt;table_eacb7cb5</title>
<path fill="none" stroke="black" d="M478.16,-87.33C516.11,-95 561.77,-104.22 598.97,-111.73"/>
<polygon fill="black" stroke="black" points="598.73,-115.26 609.22,-113.8 600.11,-108.39 598.73,-115.26"/>
</g>
<!-- apple_578ea247 -->
<g id="node4" class="node">
<title>apple_578ea247</title>
<ellipse fill="none" stroke="black" cx="670.6" cy="-72" rx="86.38" ry="18"/>
<text text-anchor="middle" x="670.6" y="-68.3" font-family="Times,serif" font-size="14.00">apple_578ea247</text>
</g>
<!-- table_with_objects_c3d8460f&#45;&gt;apple_578ea247 -->
<g id="edge3" class="edge">
<title>table_with_objects_c3d8460f&#45;&gt;apple_578ea247</title>
<path fill="none" stroke="black" d="M545.71,-72C555.16,-72 564.55,-72 573.68,-72"/>
<polygon fill="black" stroke="black" points="573.86,-75.5 583.86,-72 573.86,-68.5 573.86,-75.5"/>
</g>
<!-- sprite_ddd7abb1 -->
<g id="node5" class="node">
<title>sprite_ddd7abb1</title>
<ellipse fill="none" stroke="black" cx="670.6" cy="-18" rx="89.08" ry="18"/>
<text text-anchor="middle" x="670.6" y="-14.3" font-family="Times,serif" font-size="14.00">sprite_ddd7abb1</text>
</g>
<!-- table_with_objects_c3d8460f&#45;&gt;sprite_ddd7abb1 -->
<g id="edge4" class="edge">
<title>table_with_objects_c3d8460f&#45;&gt;sprite_ddd7abb1</title>
<path fill="none" stroke="black" d="M478.16,-56.67C515.41,-49.15 560.07,-40.12 596.88,-32.69"/>
<polygon fill="black" stroke="black" points="597.94,-36.05 607.05,-30.64 596.55,-29.18 597.94,-36.05"/>
</g>
</g>
</svg>
