<?xml version="1.0" encoding="UTF-8" standalone="no"?>
<!DOCTYPE svg PUBLIC "-//W3C//DTD SVG 1.1//EN"
 "http://www.w3.org/Graphics/SVG/1.1/DTD/svg11.dtd">
<!-- Generated by graphviz version 2.43.0 (0)
 -->
<!-- Pages: 1 -->
<svg width="762pt" height="152pt"
 viewBox="0.00 0.00 762.44 152.00" xmlns="http://www.w3.org/2000/svg" xmlns:xlink="http://www.w3.org/1999/xlink">
<g id="graph0" class="graph" transform="scale(1 1) rotate(0) translate(4 148)">
<polygon fill="white" stroke="transparent" points="-4,4 -4,-148 758.44,-148 758.44,4 -4,4"/>
<!-- root_scene_6fe3a634 -->
<g id="node1" class="node">
<title>root_scene_6fe3a634</title>
<ellipse fill="none" stroke="black" cx="108.54" cy="-72" rx="108.58" ry="18"/>
<text text-anchor="middle" x="108.54" y="-68.3" font-family="Times,serif" font-size="14.00">root_scene_6fe3a634</text>
</g>
<!-- table_with_objects_2f4b7671 -->
<g id="node2" class="node">
<title>table_with_objects_2f4b7671</title>
<ellipse fill="none" stroke="black" cx="398.67" cy="-72" rx="145.67" ry="18"/>
<text text-anchor="middle" x="398.67" y="-68.3" font-family="Times,serif" font-size="14.00">table_with_objects_2f4b7671</text>
</g>
<!-- root_scene_6fe3a634&#45;&gt;table_with_objects_2f4b7671 -->
<g id="edge1" class="edge">
<title>root_scene_6fe3a634&#45;&gt;table_with_objects_2f4b7671</title>
<path fill="none" stroke="black" d="M217.24,-72C225.62,-72 234.19,-72 242.8,-72"/>
<polygon fill="black" stroke="black" points="242.93,-75.5 252.93,-72 242.93,-68.5 242.93,-75.5"/>
</g>
<!-- table_2b46d422 -->
<g id="node3" class="node">
<title>table_2b46d422</title>
<ellipse fill="none" stroke="black" cx="667.35" cy="-126" rx="85.29" ry="18"/>
<text text-anchor="middle" x="667.35" y="-122.3" font-family="Times,serif" font-size="14.00">table_2b46d422</text>
</g>
<!-- table_with_objects_2f4b7671&#45;&gt;table_2b46d422 -->
<g id="edge2" class="edge">
<title>table_with_objects_2f4b7671&#45;&gt;table_2b46d422</title>
<path fill="none" stroke="black" d="M475.37,-87.33C512.96,-94.94 558.1,-104.08 595.06,-111.57"/>
<polygon fill="black" stroke="black" points="594.76,-115.07 605.25,-113.63 596.15,-108.21 594.76,-115.07"/>
</g>
<!-- sprite_19ac480a -->
<g id="node4" class="node">
<title>sprite_19ac480a</title>
<ellipse fill="none" stroke="black" cx="667.35" cy="-72" rx="87.18" ry="18"/>
<text text-anchor="middle" x="667.35" y="-68.3" font-family="Times,serif" font-size="14.00">sprite_19ac480a</text>
</g>
<!-- table_with_objects_2f4b7671&#45;&gt;sprite_19ac480a -->
<g id="edge3" class="edge">
<title>table_with_objects_2f4b7671&#45;&gt;sprite_19ac480a</title>
<path fill="none" stroke="black" d="M544.32,-72C552.94,-72 561.5,-72 569.84,-72"/>
<polygon fill="black" stroke="black" points="569.91,-75.5 579.91,-72 569.91,-68.5 569.91,-75.5"/>
</g>
<!-- cola_9f63f422 -->
<g id="node5" class="node">
<title>cola_9f63f422</title>
<ellipse fill="none" stroke="black" cx="667.35" cy="-18" rx="75.29" ry="18"/>
<text text-anchor="middle" x="667.35" y="-14.3" font-family="Times,serif" font-size="14.00">cola_9f63f422</text>
</g>
<!-- table_with_objects_2f4b7671&#45;&gt;cola_9f63f422 -->
<g id="edge4" class="edge">
<title>table_with_objects_2f4b7671&#45;&gt;cola_9f63f422</title>
<path fill="none" stroke="black" d="M475.37,-56.67C514.39,-48.77 561.55,-39.22 599.25,-31.59"/>
<polygon fill="black" stroke="black" points="600.01,-35 609.12,-29.59 598.62,-28.14 600.01,-35"/>
</g>
</g>
</svg>
