<?xml version="1.0" encoding="UTF-8" standalone="no"?>
<!DOCTYPE svg PUBLIC "-//W3C//DTD SVG 1.1//EN"
 "http://www.w3.org/Graphics/SVG/1.1/DTD/svg11.dtd">
<!-- Generated by graphviz version 2.43.0 (0)
 -->
<!-- Pages: 1 -->
<svg width="765pt" height="152pt"
 viewBox="0.00 0.00 765.04 152.00" xmlns="http://www.w3.org/2000/svg" xmlns:xlink="http://www.w3.org/1999/xlink">
<g id="graph0" class="graph" transform="scale(1 1) rotate(0) translate(4 148)">
<polygon fill="white" stroke="transparent" points="-4,4 -4,-148 761.04,-148 761.04,4 -4,4"/>
<!-- root_scene_b630df22 -->
<g id="node1" class="node">
<title>root_scene_b630df22</title>
<ellipse fill="none" stroke="black" cx="109.19" cy="-72" rx="109.38" ry="18"/>
<text text-anchor="middle" x="109.19" y="-68.3" font-family="Times,serif" font-size="14.00">root_scene_b630df22</text>
</g>
<!-- table_with_objects_2a9888cc -->
<g id="node2" class="node">
<title>table_with_objects_2a9888cc</title>
<ellipse fill="none" stroke="black" cx="399.97" cy="-72" rx="145.67" ry="18"/>
<text text-anchor="middle" x="399.97" y="-68.3" font-family="Times,serif" font-size="14.00">table_with_objects_2a9888cc</text>
</g>
<!-- root_scene_b630df22&#45;&gt;table_with_objects_2a9888cc -->
<g id="edge1" class="edge">
<title>root_scene_b630df22&#45;&gt;table_with_objects_2a9888cc</title>
<path fill="none" stroke="black" d="M218.54,-72C226.94,-72 235.51,-72 244.13,-72"/>
<polygon fill="black" stroke="black" points="244.27,-75.5 254.27,-72 244.27,-68.5 244.27,-75.5"/>
</g>
<!-- table_efbd5fd5 -->
<g id="node3" class="node">
<title>table_efbd5fd5</title>
<ellipse fill="none" stroke="black" cx="669.3" cy="-126" rx="79.89" ry="18"/>
<text text-anchor="middle" x="669.3" y="-122.3" font-family="Times,serif" font-size="14.00">table_efbd5fd5</text>
</g>
<!-- table_with_objects_2a9888cc&#45;&gt;table_efbd5fd5 -->
<g id="edge2" class="edge">
<title>table_with_objects_2a9888cc&#45;&gt;table_efbd5fd5</title>
<path fill="none" stroke="black" d="M476.86,-87.33C515.4,-95.12 561.88,-104.5 599.39,-112.08"/>
<polygon fill="black" stroke="black" points="598.72,-115.52 609.22,-114.07 600.11,-108.66 598.72,-115.52"/>
</g>
<!-- sprite_4ad30bc6 -->
<g id="node4" class="node">
<title>sprite_4ad30bc6</title>
<ellipse fill="none" stroke="black" cx="669.3" cy="-72" rx="87.99" ry="18"/>
<text text-anchor="middle" x="669.3" y="-68.3" font-family="Times,serif" font-size="14.00">sprite_4ad30bc6</text>
</g>
<!-- table_with_objects_2a9888cc&#45;&gt;sprite_4ad30bc6 -->
<g id="edge3" class="edge">
<title>table_with_objects_2a9888cc&#45;&gt;sprite_4ad30bc6</title>
<path fill="none" stroke="black" d="M545.59,-72C554.24,-72 562.84,-72 571.23,-72"/>
<polygon fill="black" stroke="black" points="571.35,-75.5 581.35,-72 571.35,-68.5 571.35,-75.5"/>
</g>
<!-- cola_10bd46fa -->
<g id="node5" class="node">
<title>cola_10bd46fa</title>
<ellipse fill="none" stroke="black" cx="669.3" cy="-18" rx="77.19" ry="18"/>
<text text-anchor="middle" x="669.3" y="-14.3" font-family="Times,serif" font-size="14.00">cola_10bd46fa</text>
</g>
<!-- table_with_objects_2a9888cc&#45;&gt;cola_10bd46fa -->
<g id="edge4" class="edge">
<title>table_with_objects_2a9888cc&#45;&gt;cola_10bd46fa</title>
<path fill="none" stroke="black" d="M476.86,-56.67C515.68,-48.83 562.56,-39.36 600.21,-31.75"/>
<polygon fill="black" stroke="black" points="600.97,-35.17 610.07,-29.76 599.58,-28.31 600.97,-35.17"/>
</g>
</g>
</svg>
